<?xml version="1.0" encoding="utf-8"?>
<!-- Generator: Adobe Illustrator 18.1.1, SVG Export Plug-In . SVG Version: 6.00 Build 0)  -->
<svg version="1.1" id="Layer_1" xmlns="http://www.w3.org/2000/svg" xmlns:xlink="http://www.w3.org/1999/xlink" x="0px" y="0px"
	 viewBox="0 0 542.3 396.8" enable-background="new 0 0 542.3 396.8" xml:space="preserve">
<g>
	<g><defs>
    <style>
      .cls-1 {
        fill: #fff;
        fill-rule: evenodd;
      }
    </style>
  </defs>
		<path d="M132.2,191c-11.5-4.6-22.3-8.7-32.9-13.4C88.5,172.8,78,167.3,70.2,158c-6.6-7.9-7.5-16.1-2.9-25.4
			c6-12.3,16.5-20.3,27.1-28c23.4-17,49.7-27.9,77.3-36c22.8-6.7,45.9-11,69.8-10.2c1.6,0.1,3.7-0.7,4.7-1.9
			c15.3-17.9,34.9-29.3,56-38.8c16.8-7.5,34.5-11.9,52.7-14.5c9.7-1.4,19.4-2.3,29.2-3.2c2.5-0.2,5.2,0.4,7.8,1.9
			c-6.4,0.6-12.9,0.8-19.3,1.7c-33.5,4.6-66.1,12-94.5,31.8c-7.6,5.3-14.8,11.2-22,17c-2,1.6-3.5,3.9-5.6,6.3
			c4,1.1,7.4,1.7,10.6,2.9c6.1,2.4,8.4,7,5.4,12.7c-2.7,5.2-6.6,9.9-10.3,14.5c-1.6,2-4.2,3.3-6.3,4.8c0.2,0.8,0.4,1.5,0.6,2.3
			c9.1,5.3,18,11,27.4,15.8c11.9,6.1,23.5,12.5,33.2,21.9c6.8,6.5,10.3,14.6,10.6,24c0,1.3,0.2,2.5,0.4,4.3
			c8.2-5.5,15.7-11,23.6-15.7c9.9-5.8,20-11.1,30.2-16.4c1.3-0.7,3.3-0.2,5-0.2c0,1.7,0.5,3.8-0.3,5c-5.6,8.6-11.5,17.1-17.3,25.6
			c-8.4,12.3-16.8,24.7-24.5,37.8c8.1-6.1,16.3-12.2,24.4-18.3c3.1,1.7,3.2,3.6,0.9,6c-3.6,3.7-7.1,7.4-10.6,11.2
			c-1.1,1.2-1.9,2.6-2.8,3.9c0.4,0.5,0.8,1,1.2,1.5c5.3-3.9,10.7-7.8,16-11.7c2-1.5,3.9-3,6.1-4.2c0.7-0.4,2.7,0.2,2.8,0.5
			c0.2,1.1,0.1,2.7-0.6,3.4c-1.2,1.2-3,2-4.6,3c4.3,2.4,9.4,1.4,20.8-6c6.1-3.9,11.2-9.5,18-14.4c-0.4,1.8-0.2,3.9-1.2,5.3
			c-1.8,2.6-4.4,4.6-6.4,7c-2.3,2.8-1.4,5.2,2.2,5.3c3.1,0.1,6.5,0.2,9.2-1c6.8-2.9,14.4-4.4,19.4-11.2c3.6-4.8,8.7-8.6,13.6-12.3
			c1.4-1,4.1-0.2,6.3-0.3c-0.8,1.8-1,4.2-2.3,5.4c-4.8,4-10.1,7.5-15.1,11.4c-2.1,1.7-3.7,4-6.6,7.2c4,0.6,6.4,1,8.9,1.4
			c0.2,0.4,0.3,0.8,0.5,1.2c-2.2,0.7-4.6,2.3-6.5,1.9c-2.4-0.5-4.4-2.8-7.4-4.9c-3.9,1.3-9.4,3.3-15,4.8c-2.8,0.8-5.8,0.6-8.8,0.9
			c-1.4,0.2-2.8,0.5-4.2,0.9c-1.7,0.5-3.3,1.1-4.9,1.7c-0.4-1.7-0.7-3.5-1-4.9c-4.4,1.7-9,4.1-14,5.3c-2.8,0.7-6-0.5-9.1-0.6
			c-1.6,0-3.5,0.2-4.8,1c-4.5,2.5-8.8,5.4-13.3,7.8c-1.2,0.7-3,0.4-4.5,0.5c0-1.6-0.2-3.1,0-4.7c0.1-1.1,0.6-2.2,0.1-4.3
			c-7.6,6.9-16.2,13-22.5,20.9c-13.9,17.7-26.8,36.3-39.8,54.7c-5.6,8-10.3,16.6-15.7,24.8c-1,1.5-3.1,2.4-4.7,3.6
			c-0.2-2.1-1.1-4.6-0.3-6.3c2.8-6,5.8-11.9,9.3-17.5c12.6-20.2,26.3-39.8,42.9-56.8c13.2-13.6,21.3-30.4,32.5-45.2
			c9.9-13.1,19.1-26.8,28.5-40.3c0.7-1.1,1.4-2.2,1.4-4.3c-6.2,3.1-12.7,5.9-18.7,9.5c-11.2,6.8-22.2,14-33.1,21.3
			c-2,1.3-3,4-4.3,6.2c-5,8.7-8.9,18.4-15.2,26.1c-10.6,13-22.6,24.8-34,37.1c-0.7,0.7-1.4,1.5-2.2,2c-1.4,0.7-2.9,1.2-4.3,1.8
			c-0.2-1.7-1.1-3.8-0.5-5c5.9-10.4,11-21.4,18.4-30.6c9-11,20.1-20.3,30-30.5c2-2.1,3.8-5,4.2-7.8c1.5-10.1-2.1-18.9-9.9-25.3
			c-6.9-5.7-14.3-10.8-22-15.5c-12.5-7.5-25.4-14.4-38.9-22c-21.6,20.9-44.5,42.5-63.7,69.5c8.2-2.3,14.9-4.1,21.6-5.9
			c0.6-0.2,1.3-0.6,1.9-0.6c2.6,0.2,6.4-0.3,7.5,1.2c2.6,3.3-0.1,6.6-2.5,9.2c-8.2,9-16.5,17.8-24.8,26.7c-1.2,1.3-2.3,2.7-3.5,4.1
			c0.3,0.3,0.6,0.6,0.9,0.9c3.6-3.3,7.3-6.5,10.8-10.1c2.4-2.5,4.3-5.4,6.6-8c2.4-2.7,4.7-3.1,6.5,0.7c-4.2,5.4-8.3,10.7-12.4,16.1
			c9.3,0.7,13.6-6,19.1-11.3c1.4,1.9,2.4,3.3,3.5,4.8c9.3,0.3,14.8-6.1,20.5-12.1c0.9-1,1.6-2.4,2.7-2.9c1.6-0.8,3.6-1,5.4-1.5
			c-0.5,1.9-0.7,4-1.7,5.6c-2.3,3.6-5.1,6.9-7.5,10.4c-1.2,1.9-2.6,4,0.2,6c0.4,0.3,0.4,2.2-0.1,2.5c-1,0.7-2.5,1.5-3.5,1.2
			c-1.2-0.4-2.7-1.8-2.8-3c-0.3-2,0.3-4.2,0.6-6.3c-4.5,1.9-8.8,5.1-13.3,5.4c-7.1,0.4-12.8,3.2-18.9,6.2c-5.6,2.8-7.8,1.5-9.3-4.9
			c-1.1,0.7-2.3,1.2-3.1,2.1c-8,7.7-16,15.5-24.1,23.2c-0.4,0.3-0.6,0.9-1.1,1c-1.6,0.4-3.2,0.7-4.8,1c0.2-1.7-0.2-3.9,0.7-5.1
			c2.2-3.1,5.1-5.7,7.5-8.6c1.6-1.9,3.1-3.9,5.2-6.6c-4.1-2.1-7.8-3.9-12.1-6c-4.9,8.2-10.1,15.8-14.1,23.9
			c-18.8,37.6-37.1,75.5-56,113c-7.1,14.1-14.6,28-23.1,41.2c-6,9.2-14.3,16.6-26.9,14.4c-7.9-1.4-14.1-5.6-19.2-11.7
			c-17.4-21-24.4-44.5-16.2-71.1c4.4-14.2,12.6-26.5,22-37.9c18.7-22.6,40.8-41.3,64.9-57.7c12.3-8.4,25.2-16,37.8-24
			C129.4,193.2,130.6,192.3,132.2,191z M155.7,201.8c-5.9-2.9-11-5.7-16.3-8c-1.2-0.5-3.3-0.4-4.5,0.3
			c-16.9,10.8-34.1,21.3-50.6,32.8c-24,16.7-45.5,36.4-62.5,60.4C7.2,307.8-1.1,330,6.7,355.7c4,13.2,10.4,25,21.3,33.5
			c5.8,4.6,12.8,6.5,20.4,2c8.9-5.3,15.4-12.7,20-21.6c15.2-29.7,29.9-59.6,45-89.3c10-19.7,20.2-39.2,30.6-58.7
			C147.5,215,151.5,208.7,155.7,201.8z M243.7,61.1c-3.1-0.2-5.2-0.5-7.4-0.4c-4.8,0.1-9.7,0.1-14.5,0.5
			c-36.4,3.6-70.7,14.2-102.9,31.3c-15.8,8.4-30.7,18.2-42.5,31.9c-10.9,12.8-11.7,23.9-0.8,34.4c2.7,2.6,5.7,5.3,9.1,6.9
			c16.1,7.5,32.3,14.7,48.6,21.7c1.7,0.7,4.3,0.5,6-0.3c11.1-4.7,22.2-9.7,33.2-14.7c2.1-1,4.6-2.3,5.8-4.1
			c13.9-20.3,31.1-37.6,48.2-55.1c6-6.2,11.3-13,17.2-19.9C236.1,84.5,236.3,73.3,243.7,61.1z M209.3,166.2c-0.1-0.5-0.2-1-0.3-1.5
			c-9.9,3.2-19.7,6.5-29.6,9.7c-0.4,0.1-0.8,0.6-1.1,1c-5.9,8.5-11.7,17.1-17.7,25.8c4.5,2.5,8.3,4.6,11.5,6.4
			C184.8,193.4,197.1,179.8,209.3,166.2z M268.5,227.4c16.7-17.7,36.3-33.1,46.2-56.4C294.6,186,278.9,204.5,268.5,227.4z
			 M248.9,92.2c3.7-4.1,7.7-7.9,10.8-12.3c8-11.4,5.6-16.7-8.2-18c-1.4-0.1-3.5,0.9-4.3,2.1C240.9,73.3,241.4,82.8,248.9,92.2z
			 M171.4,178.4c-0.2-0.4-0.4-0.7-0.5-1.1c-9.5,4.2-19,8.5-29.5,13.2c5.5,3,9.6,5.5,13.9,7.4c1,0.5,3.5-0.6,4.3-1.7
			C163.7,190.4,167.5,184.4,171.4,178.4z" class="cls-1"/>
		<path d="M450.7,187.7c2.7-1.3,5.4-2.7,8.5-4.2c2.7,4.5,6.2,1.7,9.4,0.2c2.6-1.2,4.7-2.2,7.1,0.4c0.9,1,3.1,1.1,4.6,1
			c8.9-0.3,17.8-1.3,26.7-1.2c10.1,0.1,20.2,0.9,30.2,1.6c2.1,0.2,5.8-0.4,5.1,3.6c-0.7,3.8-3.7,2-5.6,1.6c-19-3.3-38-2.6-57-1.1
			c-2.1,0.2-4.2-1-6.4-1.4c-1.3-0.2-2.9-0.6-4.1-0.1c-4,1.4-7.6,3.7-12.3,1.8c-1.8-0.7-4.6,1.4-7,1.9c-4.3,0.9-6.3-1.1-4.2-4.7
			c2.3-3.7,5.7-6.7,8.9-9.7c0.6-0.5,2.5,0.3,3.7,0.5c-0.5,1.2-0.6,2.8-1.5,3.6c-2.2,1.8-4.7,3.2-7.1,4.8
			C450.2,186.8,450.5,187.2,450.7,187.7z" class="cls-1"/>
		<path d="M406,114.9c-0.9,2.9-1.5,5.5-2.4,8.1c-0.4,1-1.3,1.9-2,2.8c-0.5-1-1.5-2.1-1.6-3.1C399.7,117.2,402.4,114.2,406,114.9z" class="cls-1"/>
	</g>
</g>
</svg>
